<?xml version="1.0" standalone="no"?>
<!DOCTYPE svg PUBLIC "-//W3C//DTD SVG 20010904//EN"
 "http://www.w3.org/TR/2001/REC-SVG-20010904/DTD/svg10.dtd">
<svg version="1.0" xmlns="http://www.w3.org/2000/svg"
 width="1024.000000pt" height="1024.000000pt" viewBox="0 0 1024.000000 1024.000000"
 preserveAspectRatio="xMidYMid meet">
<metadata>
Created by potrace 1.11, written by Peter Selinger 2001-2013
</metadata>
<g transform="translate(0.000000,1024.000000) scale(0.100000,-0.100000)"
fill="#000000" stroke="none">
<path d="M4889 10235 c-2 -1 -47 -6 -99 -9 -153 -10 -276 -22 -365 -36 -33 -5
-78 -12 -100 -15 -22 -3 -51 -7 -65 -10 -14 -3 -41 -8 -60 -11 -67 -10 -346
-74 -435 -99 -49 -15 -97 -28 -105 -30 -8 -2 -15 -4 -15 -5 0 -1 -7 -3 -15 -5
-64 -14 -385 -130 -513 -186 -263 -115 -396 -183 -631 -323 -65 -39 -132 -79
-150 -90 -17 -10 -33 -21 -36 -25 -3 -3 -32 -24 -65 -46 -297 -196 -693 -542
-921 -805 -21 -24 -48 -54 -59 -66 -11 -11 -34 -39 -52 -60 -17 -21 -48 -59
-69 -84 -115 -139 -332 -453 -425 -615 -19 -33 -39 -69 -46 -80 -51 -85 -184
-355 -238 -480 -25 -60 -53 -124 -61 -142 -8 -17 -14 -36 -14 -42 0 -6 -5 -19
-10 -29 -59 -100 -235 -742 -266 -969 -3 -26 -8 -57 -10 -68 -11 -50 -20 -121
-30 -220 -3 -33 -7 -70 -9 -83 -25 -160 -26 -756 -1 -962 2 -19 7 -60 11 -91
3 -31 7 -65 9 -75 2 -11 7 -46 11 -79 4 -32 9 -68 11 -79 2 -11 6 -36 9 -56 5
-34 60 -303 71 -345 3 -11 7 -30 10 -42 33 -158 188 -612 270 -791 19 -41 34
-75 34 -78 0 -6 120 -247 169 -338 83 -154 293 -486 313 -494 4 -2 8 -8 8 -13
0 -18 226 -306 340 -433 150 -168 348 -362 495 -487 11 -9 40 -34 65 -55 25
-22 61 -50 79 -64 18 -14 38 -29 44 -35 68 -58 412 -298 457 -318 8 -4 27 -15
42 -25 24 -16 111 -66 198 -115 362 -203 905 -409 1300 -493 14 -2 33 -7 42
-10 9 -3 27 -7 40 -9 53 -11 194 -37 213 -40 11 -2 54 -9 95 -15 41 -6 86 -13
100 -16 14 -2 54 -6 90 -10 36 -3 79 -8 95 -10 204 -25 743 -25 950 0 17 2 57
7 90 10 33 3 76 8 95 11 19 3 53 7 75 10 22 2 51 7 65 10 14 3 66 12 115 21
50 8 106 19 125 24 19 5 47 12 63 15 63 12 83 17 195 46 546 140 1107 395
1577 717 96 65 291 207 305 222 3 3 40 33 82 68 193 157 463 420 596 581 21
24 42 49 47 55 19 20 140 170 170 211 16 22 33 45 37 50 26 31 127 176 148
210 13 22 27 42 30 45 14 11 162 264 231 395 69 131 103 200 177 365 99 219
247 674 296 912 3 13 8 34 11 48 3 14 8 39 11 55 3 17 9 48 14 70 5 22 12 63
15 90 4 28 8 57 10 65 2 8 7 38 11 65 3 28 8 59 10 70 2 11 7 49 10 85 3 36 7
79 10 95 24 188 24 821 0 951 -2 10 -7 51 -10 89 -4 39 -9 84 -11 100 -13 78
-15 93 -20 130 -28 190 -84 439 -147 650 -11 39 -20 71 -19 72 2 7 -106 305
-156 428 -127 315 -396 802 -565 1025 -11 14 -58 77 -105 140 -48 63 -89 117
-93 120 -3 3 -32 37 -64 75 -128 154 -358 390 -486 501 -25 22 -63 55 -85 76
-107 97 -334 268 -510 383 -66 43 -131 86 -145 95 -14 9 -45 28 -70 42 -25 14
-74 42 -110 63 -158 91 -439 224 -640 303 -217 85 -644 213 -796 238 -16 2
-49 9 -74 14 -25 5 -58 12 -75 15 -245 41 -334 53 -450 61 -44 3 -91 8 -105
10 -28 6 -586 15 -591 9z m-1493 -2840 c55 -3 115 -7 134 -10 19 -2 55 -7 80
-10 153 -21 385 -95 500 -160 34 -19 66 -35 71 -35 5 0 12 -7 15 -15 4 -8 11
-15 18 -15 29 -1 171 -133 240 -224 82 -109 133 -215 171 -357 32 -124 35
-149 39 -319 5 -175 -16 -336 -53 -425 -5 -11 -17 -40 -27 -65 -74 -182 -227
-341 -421 -439 -35 -17 -63 -33 -63 -35 0 -2 24 -11 53 -21 173 -55 346 -174
463 -316 35 -43 108 -170 138 -239 50 -116 88 -320 89 -475 1 -38 -13 -230
-18 -255 -2 -14 -7 -36 -10 -50 -2 -14 -7 -38 -9 -53 -25 -152 -128 -379 -238
-525 -45 -59 -189 -209 -245 -253 -114 -91 -382 -222 -503 -245 -14 -3 -47
-11 -75 -19 -222 -63 -801 -69 -993 -11 -10 3 -28 7 -42 10 -49 10 -66 14
-130 36 -322 111 -540 306 -706 634 -40 80 -129 316 -119 316 2 0 -1 15 -6 33
-23 81 -42 229 -43 346 l-1 84 288 -1 c159 0 290 -2 293 -5 2 -2 7 -22 9 -43
20 -172 23 -192 45 -285 6 -26 13 -53 14 -60 3 -15 6 -24 42 -121 51 -136 163
-271 281 -341 65 -38 199 -92 253 -102 162 -29 405 -40 496 -21 16 3 47 8 70
11 112 15 259 73 369 144 66 43 225 192 225 211 0 5 6 15 14 22 40 41 108 225
122 333 5 40 5 244 0 270 -6 32 -18 104 -18 112 0 5 -13 43 -29 87 -37 101
-79 168 -147 234 -72 70 -133 105 -297 171 -54 22 -190 53 -295 68 -19 3 -140
7 -269 9 -129 2 -236 6 -239 8 -2 3 -5 112 -6 243 l-1 238 250 1 c201 0 264 3
320 17 39 10 80 20 91 22 22 5 75 26 134 53 181 83 303 242 344 447 35 176 15
368 -51 500 -92 182 -338 338 -588 373 -56 8 -272 6 -320 -2 -22 -4 -54 -9
-71 -11 -61 -9 -194 -56 -259 -93 -161 -92 -268 -222 -328 -402 -29 -89 -44
-147 -52 -215 -4 -27 -9 -63 -12 -80 -3 -16 -6 -52 -8 -80 -1 -27 -3 -56 -4
-63 -1 -9 -21 -13 -73 -12 -40 0 -162 0 -271 0 -110 0 -202 2 -206 4 -12 8 0
255 14 306 2 8 7 33 10 55 27 195 110 404 232 588 36 53 69 97 74 97 5 0 9 4
9 9 0 21 154 158 243 214 121 78 301 147 447 173 14 3 50 9 80 15 30 5 120 12
200 16 80 3 147 7 149 9 2 2 7 1 11 -1 4 -3 52 -7 106 -10z m3554 -75 c1206 0
1530 -3 1531 -13 0 -6 1 -115 2 -242 l2 -230 -85 -95 c-163 -182 -355 -437
-558 -742 -117 -176 -115 -172 -224 -358 -111 -190 -109 -187 -247 -465 -226
-454 -393 -866 -508 -1250 -18 -63 -54 -194 -59 -218 -2 -10 -6 -27 -9 -37 -3
-10 -7 -27 -9 -37 -2 -10 -13 -54 -25 -98 -11 -44 -22 -91 -25 -105 -2 -14
-19 -88 -36 -165 -18 -77 -34 -151 -36 -164 -4 -20 -12 -56 -39 -179 l-5 -22
-311 0 -311 1 7 47 c3 26 8 54 10 62 2 8 7 30 10 48 3 18 12 65 21 105 8 39
18 83 20 97 9 45 65 274 74 305 5 17 21 71 35 120 45 157 147 466 175 530 5
11 39 97 76 190 36 94 80 199 96 235 16 36 37 81 45 100 49 111 235 477 309
610 120 214 150 266 204 350 16 25 37 59 46 75 72 129 478 707 524 745 3 3 21
25 40 50 36 46 51 64 113 135 l36 40 -1242 5 -1242 5 0 273 c0 151 2 277 5
282 6 9 42 18 52 13 4 -2 696 -4 1538 -3z"/>
</g>
</svg>
