<?xml version="1.0" standalone="no"?>
<!DOCTYPE svg PUBLIC "-//W3C//DTD SVG 20010904//EN"
 "http://www.w3.org/TR/2001/REC-SVG-20010904/DTD/svg10.dtd">
<svg version="1.0" xmlns="http://www.w3.org/2000/svg"
 width="256.000000pt" height="256.000000pt" viewBox="0 0 256.000000 256.000000"
 preserveAspectRatio="xMidYMid meet">
<metadata>
Created by potrace 1.11, written by Peter Selinger 2001-2013
</metadata>
<g transform="translate(0.000000,256.000000) scale(0.100000,-0.100000)"
fill="#000000" stroke="none">
<path d="M1083 2386 c-431 -82 -771 -401 -884 -831 -21 -79 -24 -112 -24 -275
0 -171 2 -192 28 -285 119 -428 450 -740 875 -821 98 -19 309 -18 412 2 416
79 765 405 878 822 24 89 26 113 26 287 0 164 -3 201 -22 268 -116 419 -406
708 -820 819 -100 26 -362 34 -469 14z m470 -150 c350 -104 596 -355 688 -702
32 -119 37 -311 11 -434 -77 -373 -348 -660 -721 -762 -62 -17 -106 -21 -236
-22 -188 -1 -268 16 -424 90 -208 98 -367 257 -466 466 -72 152 -90 236 -89
418 0 113 5 174 17 224 94 373 382 655 757 737 126 28 342 21 463 -15z"/>
<path d="M899 1680 c-114 -20 -186 -98 -204 -223 l-7 -48 78 3 79 3 6 39 c9
53 47 86 100 86 75 0 120 -73 88 -143 -13 -29 -40 -43 -103 -52 l-47 -7 3 -62
3 -61 60 -6 c49 -6 64 -12 87 -38 78 -87 -14 -218 -126 -181 -43 14 -64 41
-73 93 l-6 37 -78 0 -79 0 0 -35 c0 -19 9 -59 20 -89 41 -108 143 -163 285
-154 156 10 255 114 255 267 0 67 -26 128 -67 162 l-29 24 32 42 c96 126 18
312 -141 338 -76 12 -90 13 -136 5z"/>
<path d="M1320 1590 l0 -80 191 0 191 0 -26 -35 c-134 -175 -225 -383 -242
-552 l-7 -63 85 0 85 0 12 85 c27 181 116 378 238 532 51 65 53 69 53 130 l0
63 -290 0 -290 0 0 -80z"/>
</g>
</svg>
